<?xml version="1.0" encoding="UTF-8" standalone="no"?>
<svg width="24px" height="24px" version="1.1" xmlns="http://www.w3.org/2000/svg" xmlns:xlink="http://www.w3.org/1999/xlink" id="icon-bulb" viewBox="0 0 24 24">
  <title>Bulb</title>
  <g transform="translate(5, 1)" fill="#FFFFFF" fill-rule="nonzero">
    <path d="M9.33269231,17.6923077 L4.025,17.6923077 C3.78072021,17.6923077 3.58269231,17.8903356 3.58269231,18.1346154 C3.58269231,18.3788952 3.78072021,18.5769231 4.025,18.5769231 L9.33269231,18.5769231 C9.5769721,18.5769231 9.775,18.3788952 9.775,18.1346154 C9.775,17.8903356 9.5769721,17.6923077 9.33269231,17.6923077 Z" fill-opacity="0.75"></path>
    <path d="M9.33269231,19.4615385 L4.025,19.4615385 C3.78072021,19.4615385 3.58269231,19.6595664 3.58269231,19.9038462 C3.58269231,20.1481259 3.78072021,20.3461538 4.025,20.3461538 L4.51153846,20.3461538 C4.72083513,21.3768741 5.62709083,22.1176017 6.67884615,22.1176017 C7.73060148,22.1176017 8.63685718,21.3768741 8.84615385,20.3461538 L9.33269231,20.3461538 C9.5769721,20.3461538 9.775,20.1481259 9.775,19.9038462 C9.775,19.6595664 9.5769721,19.4615385 9.33269231,19.4615385 Z" fill-opacity="0.5"></path>
    <path d="M6.67884615,0.884615385 C4.90724235,0.844496539 3.19629169,1.53060785 1.94325747,2.78364208 C0.690223237,4.03667631 0.00411192404,5.74762697 0.0442307692,7.51923077 C0.0442307692,9.48369615 1.10576923,11.2045385 2.0424,12.7223615 C2.83492692,14.0061154 3.58269231,15.2198962 3.58269231,16.3653846 C3.58269231,16.6096644 3.78072021,16.8076923 4.025,16.8076923 L9.33269231,16.8076923 C9.5769721,16.8076923 9.775,16.6096644 9.775,16.3653846 C9.775,15.2198962 10.5231192,14.0061154 11.3152923,12.7223615 C12.2519231,11.2045385 13.3134615,9.48369615 13.3134615,7.51923077 C13.3535804,5.74762697 12.6674691,4.03667631 11.4144348,2.78364208 C10.1614006,1.53060785 8.45044996,0.844496539 6.67884615,0.884615385 Z"></path>
  </g>
</svg>