<?xml version="1.0" encoding="UTF-8" standalone="no"?>
<svg width="24px" height="24px" version="1.1" xmlns="http://www.w3.org/2000/svg" xmlns:xlink="http://www.w3.org/1999/xlink" id="icon-clipboard" viewBox="0 0 24 24">
  <title>Clipboard</title>
  <g transform="translate(5, 1)" fill="#FFFFFF" fill-rule="nonzero">
    <path d="M13.64,1.76 L12.32,1.76 L12.32,0.44 C12.32,0.19699471 12.1230053,1.48797825e-17 11.88,0 C11.6369947,-1.48797825e-17 11.44,0.19699471 11.44,0.44 L11.44,1.76 L7.92,1.76 L7.92,0.44 C7.92,0.19699471 7.72300529,1.48797825e-17 7.48,0 C7.23699471,-1.48797825e-17 7.04,0.19699471 7.04,0.44 L7.04,1.76 L3.52,1.76 L3.52,0.44 C3.52,0.19699471 3.32300529,1.48797825e-17 3.08,0 C2.83699471,-1.48797825e-17 2.64,0.19699471 2.64,0.44 L2.64,1.76 L1.32,1.76 C0.591305816,1.76077603 0.000776032805,2.35130582 0,3.08 L0,4.4 L14.96,4.4 L14.96,3.08 C14.959224,2.35130582 14.3686942,1.76077603 13.64,1.76 Z"></path>
    <path d="M0,20.68 C0.000776032805,21.4086942 0.591305816,21.999224 1.32,22 L13.64,22 C14.3686942,21.999224 14.959224,21.4086942 14.96,20.68 L14.96,5.28 L0,5.28 L0,20.68 Z"></path>
  </g>
</svg>