<?xml version="1.0" encoding="UTF-8" standalone="no"?>
<svg width="45px" height="45px" viewBox="0 0 45 45" version="1.1" xmlns="http://www.w3.org/2000/svg" xmlns:xlink="http://www.w3.org/1999/xlink">
    <!-- Generator: Sketch 50.2 (55047) - http://www.bohemiancoding.com/sketch -->
    <title>Save time icon</title>
    <desc>Created with Sketch.</desc>
    <defs>
        <linearGradient x1="1.11022302e-14%" y1="100%" x2="100%" y2="1.11022302e-14%" id="linearGradient-1">
            <stop stop-color="#00B6F9" offset="0%"></stop>
            <stop stop-color="#00DFFD" offset="100%"></stop>
        </linearGradient>
    </defs>
    <g id="Revisions-#1" stroke="none" stroke-width="1" fill="none" fill-rule="evenodd">
        <g id="Manufacturing" transform="translate(-101.000000, -2670.000000)">
            <g id="r1c1" transform="translate(73.000000, 2643.000000)">
                <g id="Group-16" transform="translate(28.000000, 27.000000)">
                    <g id="print-copy">
                        <g id="Save-time-icon">
                            <path d="M10,0 L45,0 L45,35 C45,40.5228475 40.5228475,45 35,45 L0,45 L0,10 C-6.76353751e-16,4.4771525 4.4771525,1.01453063e-15 10,0 Z" id="Rectangle-7" fill="url(#linearGradient-1)"></path>
                            <g id="camera-timer" transform="translate(10.000000, 10.000000)" fill="#FFFFFF" fill-rule="nonzero">
                                <path d="M19.2,10 C19.201463,12.115386 18.4702032,14.1659834 17.13056,15.80312 L10.4,9.82032 L10.4,0.82032 C15.3155079,1.0360369 19.1919861,5.07976753 19.2,10 Z" id="Shape" fill-opacity="0.75"></path>
                                <path d="M10,0 C4.4771525,-3.38176876e-16 6.76353751e-16,4.4771525 0,10 C-6.76353751e-16,15.5228475 4.4771525,20 10,20 C15.5228475,20 20,15.5228475 20,10 C20,7.3478351 18.9464316,4.80429597 17.0710678,2.92893219 C15.195704,1.0535684 12.6521649,1.62398263e-16 10,0 Z M19.2,10 C19.201463,12.115386 18.4702032,14.1659834 17.13056,15.80312 L10.4,9.82032 L10.4,0.82032 C15.3155079,1.0360369 19.1919861,5.07976753 19.2,10 Z M10.4,19.17968 L10.4,17.2 C10.4,16.9790861 10.2209139,16.8 10,16.8 C9.7790861,16.8 9.6,16.9790861 9.6,17.2 L9.6,19.17968 C7.44107844,19.0876126 5.38436735,18.2346053 3.794,16.77168 L5.192,15.37424 C5.34829658,15.2180318 5.34836821,14.9646966 5.19216,14.8084 C5.03595178,14.6521034 4.78261658,14.6520318 4.62632,14.80824 L3.22832,16.20624 C1.76525428,14.6158597 0.912204974,12.5590306 0.82024,10.4 L2.8,10.4 C3.0209139,10.4 3.2,10.2209139 3.2,10 C3.2,9.7790861 3.0209139,9.6 2.8,9.6 L0.82024,9.6 C0.912182964,7.44097967 1.7652034,5.38415185 3.22824,3.79376 L4.626,5.192 C4.78236286,5.34829658 5.03582341,5.34824285 5.19211999,5.19187999 C5.34841658,5.03551714 5.34836285,4.78205659 5.192,4.62576 L3.79408,3.22816 C5.3844497,1.76531036 7.44112689,0.912362054 9.6,0.82032 L9.6,10 C9.60000152,10.1142385 9.64892559,10.2230072 9.7344,10.2988 L16.59664,16.3984 C14.9636348,18.0850476 12.7455638,19.0805995 10.4,19.17968 Z" id="Shape"></path>
                            </g>
                        </g>
                    </g>
                </g>
            </g>
        </g>
    </g>
</svg>