<?xml version="1.0" encoding="UTF-8" standalone="no"?>
<svg width="24px" height="24px" version="1.1" xmlns="http://www.w3.org/2000/svg" xmlns:xlink="http://www.w3.org/1999/xlink" id="icon-conversion" viewBox="0 0 24 24">
  <title>Conversion</title>
  <g transform="translate(2, 2)" fill="#FFFFFF" fill-rule="nonzero">
    <path d="M22.7272727,1.36363636 L22.7272727,14.0909091 C22.7272727,14.8440247 22.1167519,15.4545455 21.3636364,15.4545455 L16.8181818,15.4545455 C16.0650663,15.4545455 15.4545455,14.8440247 15.4545455,14.0909091 L15.4545455,9.95454545 C16.3575476,10.1379079 17.2819003,9.75790257 17.7948371,8.99244158 C18.307774,8.22698059 18.307774,7.22756487 17.7948371,6.46210388 C17.2819003,5.69664288 16.3575476,5.31663758 15.4545455,5.5 L15.4545455,1.36363636 C15.4545455,0.610520796 16.0650663,0 16.8181818,0 L21.3636364,0 C22.1167519,1.61486985e-15 22.7272727,0.610520796 22.7272727,1.36363636 Z M15.9090909,9.09090909 C16.6032537,9.09369007 17.1887231,8.57455383 17.2690335,7.8850468 C17.3493439,7.19553977 16.8988615,6.55574095 16.2226421,6.39890655 C15.5464227,6.24207214 14.8603041,6.61826104 14.6289091,7.27272727 L11.8181818,7.27272727 C11.3163747,7.27337835 10.909742,7.68001107 10.9090909,8.18181818 L10.9090909,11.8181818 L8.09836364,11.8181818 C7.8769835,11.1920242 7.23669717,10.8164218 6.58212134,10.9287292 C5.9275455,11.0410367 5.44907858,11.6085869 5.44907858,12.2727273 C5.44907858,12.9368677 5.9275455,13.5044179 6.58212134,13.6167253 C7.23669717,13.7290328 7.8769835,13.3534303 8.09836364,12.7272727 L10.9090909,12.7272727 C11.410898,12.7266216 11.8175307,12.3199889 11.8181818,11.8181818 L11.8181818,8.18181818 L14.6289091,8.18181818 C14.8198879,8.72550458 15.3328388,9.08976453 15.9090909,9.09090909 Z"></path>
    <path d="M4.54545455,12.2727273 C4.54531523,11.5901757 4.85194506,10.9437006 5.3806032,10.5119631 C5.90926135,10.0802256 6.60396602,9.90894421 7.27272727,10.0454545 L7.27272727,5.90909091 C7.27272727,5.15597534 6.66220648,4.54545455 5.90909091,4.54545455 L1.36363636,4.54545455 C0.610520796,4.54545455 9.2230057e-17,5.15597534 0,5.90909091 L0,18.6363636 C9.2230057e-17,19.3894792 0.610520796,20 1.36363636,20 L5.90909091,20 C6.66220648,20 7.27272727,19.3894792 7.27272727,18.6363636 L7.27272727,14.5 C6.60396602,14.6365103 5.90926135,14.4652289 5.3806032,14.0334914 C4.85194506,13.601754 4.54531523,12.9552789 4.54545455,12.2727273 Z" fill-opacity="0.75"></path>
  </g>
</svg>