<?xml version="1.0" encoding="UTF-8" standalone="no"?>
<svg width="24px" height="24px" version="1.1" xmlns="http://www.w3.org/2000/svg" xmlns:xlink="http://www.w3.org/1999/xlink" id="icon-cube" viewBox="0 0 24 24">
<title>Cube</title>
<g transform="translate(2, 2)" fill="#FFFFFF" fill-rule="nonzero">
  <path d="M20.24,5.72 L10.12,0 L0,5.72 L0,16.28 C0,16.286952 0.005016,16.292496 0.00528,16.299448 C0.00648869695,16.3690426 0.024609717,16.4372984 0.05808,16.498328 L0.060896,16.501144 C0.0824889635,16.5285979 0.1072741,16.553383 0.134728,16.574976 C0.161006893,16.6088531 0.192038969,16.6387589 0.226864,16.663768 L0.229592,16.666408 L9.909592,21.946408 C10.04082,22.0180115 10.199444,22.0180115 10.330672,21.946408 L20.010672,16.666408 L20.0134,16.663768 C20.0470101,16.6394135 20.0770456,16.610474 20.102632,16.577792 C20.1313215,16.5554963 20.1571274,16.5297199 20.179456,16.501056 L20.182184,16.498328 C20.2156163,16.4373785 20.2337362,16.3692174 20.234984,16.299712 C20.234984,16.29276 20.240352,16.287128 20.240352,16.280088 L20.24,5.72 Z M19.36,15.52188 L13.85824,12.377992 C13.7216286,12.2979876 13.552569,12.2975415 13.4155373,12.3768237 C13.2785056,12.4561059 13.19463,12.6028923 13.1958992,12.7612013 C13.1971684,12.9195104 13.2833867,13.0649331 13.421672,13.142008 L18.897472,16.2712 L10.56,20.818952 L10.56,11.191752 L19.36,6.217376 L19.36,15.52188 Z M9.68,1.259544 L9.68,6.6 C9.68,6.84300529 9.87699471,7.04 10.12,7.04 C10.3630053,7.04 10.56,6.84300529 10.56,6.6 L10.56,1.259544 L18.451576,5.72 L10.12,10.429144 L1.788424,5.72 L9.68,1.259544 Z M9.68,11.191312 L9.68,20.818512 L1.34244,16.2712 L6.81824,13.142184 C6.9565253,13.0651091 7.04274355,12.9196864 7.04401276,12.7613773 C7.04528197,12.6030683 6.96140645,12.4562819 6.82437471,12.3769997 C6.68734297,12.2977175 6.51828337,12.2981636 6.381672,12.378168 L0.88,15.521792 L0.88,6.217376 L9.68,11.191312 Z"></path>
</g>
</svg>