<?xml version="1.0" encoding="UTF-8" standalone="no"?>
<svg width="24px" height="24px" version="1.1" xmlns="http://www.w3.org/2000/svg" xmlns:xlink="http://www.w3.org/1999/xlink" id="icon-dollars" viewBox="0 0 24 24">
  <title>Dollars</title>
  <g transform="translate(1, 2)" fill="#FFFFFF" fill-rule="nonzero">>
    <path d="M23,0 L2.5,0 C2.22385763,-1.69088438e-17 2,0.223857625 2,0.5 C2,0.776142375 2.22385763,1 2.5,1 L23,1 C23.5520563,1.00055123 23.9994488,1.44794374 24,2 L24,14.5 C24,14.7761424 24.2238576,15 24.5,15 C24.7761424,15 25,14.7761424 25,14.5 L25,2 C24.9987325,0.895955928 24.1040441,0.00126746556 23,0 Z" fill-opacity="0.75"></path>
    <path d="M22,2 L1,2 C0.44771525,2 6.76353751e-17,2.44771525 0,3 L0,16 C6.76353751e-17,16.5522847 0.44771525,17 1,17 L22,17 C22.5522847,17 23,16.5522847 23,16 L23,3 C23,2.44771525 22.5522847,2 22,2 Z M13,9 C13.5522847,9 14,9.44771525 14,10 L14,12 C14,12.5522847 13.5522847,13 13,13 L12,13 L12,13.5 C12,13.7761424 11.7761424,14 11.5,14 C11.2238576,14 11,13.7761424 11,13.5 L11,13 L9.5,13 C9.22385763,13 9,12.7761424 9,12.5 C9,12.2238576 9.22385763,12 9.5,12 L13,12 L13,10 L10,10 C9.44771525,10 9,9.55228475 9,9 L9,7 C9,6.44771525 9.44771525,6 10,6 L11,6 L11,5.5 C11,5.22385763 11.2238576,5 11.5,5 C11.7761424,5 12,5.22385763 12,5.5 L12,6 L13.5,6 C13.7761424,6 14,6.22385763 14,6.5 C14,6.77614237 13.7761424,7 13.5,7 L10,7 L10,9 L13,9 Z"></path>
  </g>
</svg>