<?xml version="1.0" encoding="UTF-8" standalone="no"?>
<svg width="24px" height="24px" version="1.1" xmlns="http://www.w3.org/2000/svg" xmlns:xlink="http://www.w3.org/1999/xlink" id="icon-graph" viewBox="0 0 24 24">
<title>Graph</title>
<g transform="translate(2, 2)" fill="#FFFFFF" fill-rule="nonzero">
  <rect id="Rectangle-path" fill-opacity="0.5" x="1.59992" y="14.4" width="3.2" height="5.6" rx="1.5"></rect>
  <rect id="Rectangle-path" fill-opacity="0.75" x="7.19992" y="10.4" width="3.2" height="9.6" rx="1.5"></rect>
  <rect id="Rectangle-path" x="12.79992" y="5.6" width="3.2" height="14.4" rx="1.5"></rect>
  <path d="M16.79832,0.392 C16.7958069,0.359323108 16.7892777,0.327080273 16.77888,0.296 C16.7758232,0.277049166 16.7714391,0.258336449 16.76576,0.24 C16.7543818,0.219433015 16.7412391,0.199892949 16.72648,0.1816 C16.7123297,0.156869831 16.6955382,0.133747874 16.6764,0.11264 L16.67104,0.10544 C16.6543436,0.0933913971 16.6367146,0.0826909378 16.61832,0.07344 C16.5954982,0.055910608 16.5707516,0.041041194 16.54456,0.02912 C16.5162066,0.0198068153 16.48686,0.0138462168 16.45712,0.01136 C16.4384035,0.00609723612 16.4193059,0.00229910138 16.4,0 L13.2,0 C12.9790861,-1.3527075e-17 12.8,0.1790861 12.8,0.4 C12.8,0.6209139 12.9790861,0.8 13.2,0.8 L15.46752,0.8 C9.83288,6.568 1.104,11.1984 1.014,11.24608 C0.882526542,11.3096984 0.796180188,11.4399184 0.788747596,11.5857859 C0.781315004,11.7316535 0.853977949,11.8699757 0.978303984,11.9466282 C1.10263002,12.0232808 1.25885143,12.0260759 1.38584,11.95392 C1.47816,11.90544 10.2708,7.24216 16,1.39904 L16,3.6 C16,3.8209139 16.1790861,4 16.4,4 C16.6209139,4 16.8,3.8209139 16.8,3.6 L16.8,0.4 L16.79832,0.392 Z"></path>
  </g>
</svg>