<?xml version="1.0" encoding="UTF-8" standalone="no"?>
<svg width="24px" height="24px" viewBox="0 0 24 24" version="1.1" xmlns="http://www.w3.org/2000/svg" xmlns:xlink="http://www.w3.org/1999/xlink">
  <title>Inbox</title>
  <g id="box-file" transform="translate(2, 2)" fill="#FFFFFF" fill-rule="nonzero">
    <path d="M20.68,0 L1.32,0 C0.591305816,0.000776032805 0.000776032805,0.591305816 0,1.32 L0,20.68 C0.000776032805,21.4086942 0.591305816,21.999224 1.32,22 L20.68,22 C21.4086942,21.999224 21.999224,21.4086942 22,20.68 L22,1.32 C21.999224,0.591305816 21.4086942,0.000776032805 20.68,0 Z M19.36,15.84 C19.36,16.3260106 18.9660106,16.72 18.48,16.72 L15.136,16.72 C15.0387979,16.72 14.96,16.7987979 14.96,16.896 L14.96,18.48 C14.96,18.9660106 14.5660106,19.36 14.08,19.36 L7.92,19.36 C7.43398942,19.36 7.04,18.9660106 7.04,18.48 L7.04,16.896 C7.04,16.7987979 6.96120212,16.72 6.864,16.72 L3.52,16.72 C3.03398942,16.72 2.64,16.3260106 2.64,15.84 L2.64,3.52 C2.64,3.03398942 3.03398942,2.64 3.52,2.64 L18.48,2.64 C18.9660106,2.64 19.36,3.03398942 19.36,3.52 L19.36,15.84 Z"></path>
  </g>
</svg>