<?xml version="1.0" encoding="UTF-8" standalone="no"?>
<svg width="24px" height="24px" version="1.1" xmlns="http://www.w3.org/2000/svg" xmlns:xlink="http://www.w3.org/1999/xlink" id="icon-inbox-star" viewBox="0 0 24 24">
  <title>Inbox w/ Star</title>
  <g transform="translate(2, 2)" fill="#FFFFFF" fill-rule="nonzero">
    <path d="M18.8,0 L1.2,0 C0.537550741,0.000705484368 0.000705484368,0.537550741 0,1.2 L0,18.8 C0.000705484368,19.4624493 0.537550741,19.9992945 1.2,20 L18.8,20 C19.4624493,19.9992945 19.9992945,19.4624493 20,18.8 L20,1.2 C19.9992945,0.537550741 19.4624493,0.000705484368 18.8,0 Z M17.6,14.4 C17.6,14.8418278 17.2418278,15.2 16.8,15.2 L13.76,15.2 C13.6716344,15.2 13.6,15.2716344 13.6,15.36 L13.6,16.8 C13.6,17.2418278 13.2418278,17.6 12.8,17.6 L7.2,17.6 C6.7581722,17.6 6.4,17.2418278 6.4,16.8 L6.4,15.36 C6.4,15.2716344 6.32836556,15.2 6.24,15.2 L3.2,15.2 C2.7581722,15.2 2.4,14.8418278 2.4,14.4 L2.4,3.2 C2.4,2.7581722 2.7581722,2.4 3.2,2.4 L16.8,2.4 C17.2418278,2.4 17.6,2.7581722 17.6,3.2 L17.6,14.4 Z"></path>
    <path d="M13.28216,7.264 L11.25104,6.95776 L10.32704,5.016 C10.2710919,4.88506169 10.1424304,4.80012244 10.00004,4.80012244 C9.85764959,4.80012244 9.72898807,4.88506169 9.67304,5.016 L8.74904,6.95776 L6.71784,7.264 C6.57250636,7.2966071 6.45640905,7.40567883 6.41480498,7.54869698 C6.37320091,7.69171514 6.41267518,7.84604274 6.51784,7.95152 L7.976,9.42576 L7.62808,11.52928 C7.59412846,11.6702569 7.64427009,11.8181929 7.75694303,11.9094727 C7.86961597,12.0007524 8.02473658,12.0191056 8.1556,11.95664 L10,10.9508 L11.84464,11.95664 C11.9755034,12.0191056 12.130624,12.0007524 12.243297,11.9094727 C12.3559699,11.8181929 12.4061115,11.6702569 12.37216,11.52928 L12.024,9.42576 L13.4824,7.9516 C13.5876103,7.84609271 13.6270838,7.69169882 13.5854232,7.54864148 C13.5437626,7.40558415 13.4275671,7.29652352 13.28216,7.264 Z" fill-opacity="0.75"></path>
  </g>
</svg>