<?xml version="1.0" encoding="UTF-8" standalone="no"?>
<svg width="24px" height="24px" version="1.1" xmlns="http://www.w3.org/2000/svg" xmlns:xlink="http://www.w3.org/1999/xlink" id="icon-molecule" viewBox="0 0 24 24">
  <title>Molecule</title>
  <g transform="translate(0, 2)" fill="#FFFFFF" fill-rule="nonzero">
    <circle cx="11" cy="2" r="2"></circle>
    <circle cx="2" cy="9" r="2"></circle>
    <circle opacity="0.75" cx="21" cy="9" r="2"></circle>
    <circle opacity="0.75" cx="6" cy="21" r="2"></circle>
    <circle opacity="0.4" cx="18" cy="21" r="2"></circle>
    <path d="M3.59683961,8 L8,3.84117426 C7.81899686,3.58954209 7.67842746,3.30495963 7.58450228,3 L3,7.3301656 L3.00202805,7.33204742 C3.2323223,7.51626089 3.4333599,7.74201908 3.59683961,8 Z" id="Shape"></path>
    <path d="M8,21 C8.066274,21.3299444 8.066274,21.6700556 8,22 L15,22 C14.933726,21.6700556 14.933726,21.3299444 15,21 L8,21 Z" id="Shape" opacity="0.75"></path>
    <path d="M20.152764,12 L18,18.6977911 C18.2817652,18.7480925 18.5536007,18.8502908 18.8038404,19 L21,12.1678733 L20.9960859,12.1678733 C20.7082458,12.1646556 20.4230296,12.1078799 20.152764,12 Z" opacity="0.75"></path>
    <path d="M17.6854192,10.1520772 L13.7380358,11.5899935 C13.3248771,10.9223637 12.5817845,10.5245421 11.7904711,10.5473464 C10.9991576,10.5701508 10.2807647,11.01009 9.90764147,11.7003792 L4.25710927,10 C4.2202898,10.2931032 4.13334863,10.5778872 4,10.8421855 L9.64973152,12.542037 C9.64332603,12.6098516 9.62900264,12.6756432 9.62900264,12.745217 C9.6077326,13.583645 10.0705648,14.3610678 10.8223264,14.749652 C11.574088,15.1382362 12.4839358,15.0703492 13.1681938,14.5746184 C13.8524518,14.0788877 14.1920258,13.2415944 14.04372,12.4158191 L18,10.9749122 C17.848693,10.7202598 17.7423147,10.4420107 17.6854192,10.1520772 Z"></path>
    <path d="M18.3933149,7.98000219 C18.5605967,7.73463883 18.7655334,7.51927412 19,7.34244649 L13.3904339,3 C13.3077501,3.30070438 13.175676,3.58442285 13,3.83872087 L18.3773518,8 C18.3820261,7.99287749 18.3883761,7.9871247 18.3933149,7.98000219 Z"></path>
    <path d="M5,18.6973479 L2.84741917,12 C2.57709593,12.1079039 2.29181526,12.1646763 2.00391378,12.1678622 L2,12.1678622 L4.19622802,19 C4.44641896,18.8501395 4.71823264,18.7477908 5,18.6973479 Z" opacity="0.75"></path>
  </g>
</svg>