<?xml version="1.0" encoding="utf-8"?>
<!-- Generated by IcoMoon.io -->
<!DOCTYPE svg PUBLIC "-//W3C//DTD SVG 1.1//EN" "http://www.w3.org/Graphics/SVG/1.1/DTD/svg11.dtd">
<svg version="1.1" xmlns="http://www.w3.org/2000/svg" xmlns:xlink="http://www.w3.org/1999/xlink" width="32" height="32" viewBox="0 0 32 32">
<path fill="#e06c10" d="M27.063 16c0 6.11-4.953 11.063-11.063 11.063s-11.063-4.953-11.063-11.063c0-6.11 4.953-11.063 11.063-11.063s11.063 4.953 11.063 11.063z"></path>
<path fill="#fff" d="M23.431 15.725l-11.7-6.5c-0.137-0.075-0.25-0.088-0.35-0.025-0.1 0.056-0.144 0.162-0.144 0.319v12.975c0 0.15 0.050 0.256 0.144 0.319 0.1 0.056 0.213 0.050 0.35-0.025l11.7-6.506c0.137-0.075 0.2-0.169 0.2-0.275 0.006-0.113-0.063-0.206-0.2-0.281z"></path>
</svg>
