<?xml version="1.0" encoding="UTF-8" standalone="no"?>
<svg width="24px" height="24px" version="1.1" xmlns="http://www.w3.org/2000/svg" xmlns:xlink="http://www.w3.org/1999/xlink" id="icon-printer" viewBox="0 0 24 24">
  <title>Printer</title>
  <g transform="translate(1, 8)" fill="#FFFFFF" fill-rule="nonzero">
    <path d="M19.2857143,1.25776398 L19.2857143,8.80434783 C19.2857143,9.49899169 18.7225942,10.0621118 18.0279503,10.0621118 L15.931677,10.0621118 L15.931677,7.54658385 L17.189441,7.54658385 C17.4209889,7.54658385 17.6086957,7.35887715 17.6086957,7.12732919 C17.6086957,6.89578124 17.4209889,6.70807453 17.189441,6.70807453 L2.09627329,6.70807453 C1.86472534,6.70807453 1.67701863,6.89578124 1.67701863,7.12732919 C1.67701863,7.35887715 1.86472534,7.54658385 2.09627329,7.54658385 L3.35403727,7.54658385 L3.35403727,10.0621118 L1.25776398,10.0621118 C0.563120113,10.0621118 1.8618647e-16,9.49899169 0,8.80434783 L0,1.25776398 C-1.8618647e-16,0.563120113 0.563120113,0 1.25776398,0 L18.0279503,0 C18.7225942,0 19.2857143,0.563120113 19.2857143,1.25776398 Z M5.0310559,2.93478261 C5.0310559,2.70323465 4.8433492,2.51552795 4.61180124,2.51552795 L2.93478261,2.51552795 C2.70323465,2.51552795 2.51552795,2.70323465 2.51552795,2.93478261 C2.51552795,3.16633056 2.70323465,3.35403727 2.93478261,3.35403727 L4.61180124,3.35403727 C4.8433492,3.35403727 5.0310559,3.16633056 5.0310559,2.93478261 Z" fill-rule="nonzero"></path>
    <path d="M4.19254658,11.3198758 C4.19254658,11.5514237 4.38025329,11.7391304 4.61180124,11.7391304 L14.673913,11.7391304 C14.905461,11.7391304 15.0931677,11.5514237 15.0931677,11.3198758 L15.0931677,7.54658385 L4.19254658,7.54658385 L4.19254658,11.3198758 Z" opacity="0.5"></path>
  </g>
</svg>