<?xml version="1.0" encoding="UTF-8" standalone="no"?>
<svg width="45px" height="45px" viewBox="0 0 45 45" version="1.1" xmlns="http://www.w3.org/2000/svg" xmlns:xlink="http://www.w3.org/1999/xlink">
  <title>Scan</title>
  <g transform="translate(-10, -10)" fill="#FFFFFF" fill-rule="nonzero">
    <path d="M28.96,29.72 C28.9589949,30.5590562 28.2790562,31.2389949 27.44,31.24 L15.28,31.24 C14.4409438,31.2389949 13.7610051,30.5590562 13.76,29.72 L13.76,17.56 C13.7608797,16.7208918 14.4408918,16.0408797 15.28,16.04 L23.26,16.04 C23.4698682,16.04 23.64,15.8698682 23.64,15.66 C23.64,15.4501318 23.4698682,15.28 23.26,15.28 L15.28,15.28 C14.0207908,15.28 13,16.3007908 13,17.56 L13,29.72 C13,30.9792092 14.0207908,32 15.28,32 L27.44,32 C28.6992092,32 29.72,30.9792092 29.72,29.72 L29.72,21.855064 C29.4728131,21.9424219 29.2185316,22.00823 28.96,22.051752 L28.96,29.72 Z" fill-rule="nonzero" opacity="0.5"></path>
    <circle fill-rule="nonzero" cx="28.2" cy="16.8" r="3.8"></circle>
  </g>
</svg>