<?xml version="1.0" encoding="UTF-8" standalone="no"?>
<svg width="24px" height="24px" version="1.1" xmlns="http://www.w3.org/2000/svg" xmlns:xlink="http://www.w3.org/1999/xlink" id="icon-search-docs" viewBox="0 0 24 24">
  <title>Search Documents</title>
  <g transform="translate(3, 2.5)" fill="#FFFFFF" fill-rule="nonzero" stroke="#FFFFFF" stroke-width="0.5">
    <path d="M19.8842422,19.3192246 L16.4937232,15.9289809 C16.4840733,15.9218118 16.4740427,15.9151698 16.4636755,15.9090839 C18.1304398,13.9453521 17.9509339,11.0164497 16.0568371,9.27091983 C14.1627403,7.52538997 11.2287099,7.58497199 9.40705088,9.40595855 C7.58539189,11.2269451 7.52495998,14.16072 9.27008595,16.0551657 C11.0152119,17.9496114 13.9443003,18.1299464 15.9086715,16.463883 C15.9166629,16.4732322 15.9197796,16.4849786 15.92865,16.4939283 L19.3190891,19.884172 C19.475306,20.0390585 19.727347,20.0385426 19.8829284,19.8830178 C20.0385098,19.7274931 20.0390971,19.4754727 19.8842422,19.3192246 Z M12.8089602,16.804929 C10.602191,16.804929 8.81325111,15.0161344 8.81325111,12.8095443 C8.81325111,10.6029543 10.602191,8.81415961 12.8089602,8.81415961 C15.0157294,8.81415961 16.8046693,10.6029543 16.8046693,12.8095443 C16.8021151,15.0150756 15.0146705,16.8023751 12.8089602,16.804929 Z"></path>
    <path d="M6.8,15.2 L1.2,15.2 C0.9790861,15.2 0.8,15.0209139 0.8,14.8 L0.8,1.2 C0.8,0.9790861 0.9790861,0.8 1.2,0.8 L14.8,0.8 C15.0209139,0.8 15.2,0.9790861 15.2,1.2 L15.2,6.8 C15.2,7.0209139 15.3790861,7.2 15.6,7.2 C15.8209139,7.2 16,7.0209139 16,6.8 L16,1.2 C16,0.5372583 15.4627417,4.05812251e-17 14.8,0 L1.2,0 C0.5372583,-4.05812251e-17 8.11624501e-17,0.5372583 0,1.2 L0,14.8 C8.11624501e-17,15.4627417 0.5372583,16 1.2,16 L6.8,16 C7.0209139,16 7.2,15.8209139 7.2,15.6 C7.2,15.3790861 7.0209139,15.2 6.8,15.2 Z"></path>
  </g>
</svg>