<?xml version="1.0" encoding="UTF-8" standalone="no"?>
<svg width="24px" height="24px" version="1.1" xmlns="http://www.w3.org/2000/svg" xmlns:xlink="http://www.w3.org/1999/xlink" id="icon-shield" viewBox="0 0 24 24">
  <title>Shield</title>
  <g transform="translate(2, 2)" fill="#FFFFFF" fill-rule="nonzero">
    <path d="M0,0 L0,9.56521739 C0,13.5869565 4.72826087,20 9.13043478,20 C13.5326087,20 18.2608696,13.5869565 18.2608696,9.56521739 L18.2608696,0 L0,0 Z M9.13043478,17.3913043 C6.04408696,17.3913043 2.60869565,12.9857391 2.60869565,10 L2.60869565,3.04347826 C2.60869565,2.80335446 2.80335446,2.60869565 3.04347826,2.60869565 L7.39130435,2.60869565 C7.63142815,2.60869565 7.82608696,2.80335446 7.82608696,3.04347826 C7.82608696,3.28360207 7.63142815,3.47826087 7.39130435,3.47826087 L3.47826087,3.47826087 L3.47826087,10 C3.47826087,12.5161739 6.5646087,16.5217391 9.13043478,16.5217391 C9.37055859,16.5217391 9.56521739,16.7163979 9.56521739,16.9565217 C9.56521739,17.1966455 9.37055859,17.3913043 9.13043478,17.3913043 Z"></path>
  </g>
</svg>