<?xml version="1.0" encoding="UTF-8" standalone="no"?>
<svg id="icon-stack" width="24px" height="24px" viewBox="0 0 24 24" version="1.1" xmlns="http://www.w3.org/2000/svg" xmlns:xlink="http://www.w3.org/1999/xlink">
  <title>Stack of Cards</title>
  <g transform="translate(1, 5)" fill="#FFFFFF" fill-rule="nonzero">
    <path d="M21.2619048,-4.8638342e-16 L1.35714286,-4.8638342e-16 C0.607613554,-8.8817842e-16 9.17908662e-17,0.607613554 0,1.35714286 L0,9.5 C9.17908662e-17,10.2495293 0.607613554,10.8571429 1.35714286,10.8571429 L21.2619048,10.8571429 C22.0114341,10.8571429 22.6190476,10.2495293 22.6190476,9.5 L22.6190476,1.35714286 C22.6190476,0.607613554 22.0114341,7.19001578e-16 21.2619048,-4.8638342e-16 Z"></path>
    <path d="M20.3571429,12.6666667 L2.26190476,12.6666667 C2.01206166,12.6666667 1.80952381,12.8692045 1.80952381,13.1190476 C1.80952381,13.3688907 2.01206166,13.5714286 2.26190476,13.5714286 L20.3571429,13.5714286 C20.606986,13.5714286 20.8095238,13.3688907 20.8095238,13.1190476 C20.8095238,12.8692045 20.606986,12.6666667 20.3571429,12.6666667 Z"></path>
    <path d="M18.547619,15.3809524 L4.07142857,15.3809524 C3.82158547,15.3809524 3.61904762,15.5834902 3.61904762,15.8333333 C3.61904762,16.0831764 3.82158547,16.2857143 4.07142857,16.2857143 L18.547619,16.2857143 C18.7974621,16.2857143 19,16.0831764 19,15.8333333 C19,15.5834902 18.7974621,15.3809524 18.547619,15.3809524 Z" opacity="0.75"></path>
    <path d="M16.7380952,18.0952381 L5.88095238,18.0952381 C5.63110928,18.0952381 5.42857143,18.2977759 5.42857143,18.547619 C5.42857143,18.7974621 5.63110928,19 5.88095238,19 L16.7380952,19 C16.9879383,19 17.1904762,18.7974621 17.1904762,18.547619 C17.1904762,18.2977759 16.9879383,18.0952381 16.7380952,18.0952381 Z" opacity="0.5"></path>
  </g>
</svg>