<svg style="position: absolute; width: 0; height: 0; overflow: hidden;" version="1.1" xmlns="http://www.w3.org/2000/svg" xmlns:xlink="http://www.w3.org/1999/xlink">
<defs>
<symbol id="icon-LiftedLogic" viewBox="0 0 221 32">
<title>Lifted Logic Web Design in Kansas City</title>
<path d="M186.049 3.818h-9.095l-11.116 20.884h20.547v-6.625h-8.982z"></path>
<path d="M192.561 3.818h9.095l11.116 20.884h-20.547v-6.625h8.926z"></path>
</symbol>
<symbol id="icon-clock" viewBox="0 0 24 24">
<title>Clock</title>
<g transform="translate(2, 2)" fill="#FFFFFF" fill-rule="nonzero">
  <path d="M19.2,10 C19.201463,12.115386 18.4702032,14.1659834 17.13056,15.80312 L10.4,9.82032 L10.4,0.82032 C15.3155079,1.0360369 19.1919861,5.07976753 19.2,10 Z" fill-opacity="0.75"></path>
  <path d="M10,0 C4.4771525,-3.38176876e-16 6.76353751e-16,4.4771525 0,10 C-6.76353751e-16,15.5228475 4.4771525,20 10,20 C15.5228475,20 20,15.5228475 20,10 C20,7.3478351 18.9464316,4.80429597 17.0710678,2.92893219 C15.195704,1.0535684 12.6521649,1.62398263e-16 10,0 Z M19.2,10 C19.201463,12.115386 18.4702032,14.1659834 17.13056,15.80312 L10.4,9.82032 L10.4,0.82032 C15.3155079,1.0360369 19.1919861,5.07976753 19.2,10 Z M10.4,19.17968 L10.4,17.2 C10.4,16.9790861 10.2209139,16.8 10,16.8 C9.7790861,16.8 9.6,16.9790861 9.6,17.2 L9.6,19.17968 C7.44107844,19.0876126 5.38436735,18.2346053 3.794,16.77168 L5.192,15.37424 C5.34829658,15.2180318 5.34836821,14.9646966 5.19216,14.8084 C5.03595178,14.6521034 4.78261658,14.6520318 4.62632,14.80824 L3.22832,16.20624 C1.76525428,14.6158597 0.912204974,12.5590306 0.82024,10.4 L2.8,10.4 C3.0209139,10.4 3.2,10.2209139 3.2,10 C3.2,9.7790861 3.0209139,9.6 2.8,9.6 L0.82024,9.6 C0.912182964,7.44097967 1.7652034,5.38415185 3.22824,3.79376 L4.626,5.192 C4.78236286,5.34829658 5.03582341,5.34824285 5.19211999,5.19187999 C5.34841658,5.03551714 5.34836285,4.78205659 5.192,4.62576 L3.79408,3.22816 C5.3844497,1.76531036 7.44112689,0.912362054 9.6,0.82032 L9.6,10 C9.60000152,10.1142385 9.64892559,10.2230072 9.7344,10.2988 L16.59664,16.3984 C14.9636348,18.0850476 12.7455638,19.0805995 10.4,19.17968 Z"></path>
</g>
</symbol>
<symbol id="icon-location" viewBox="0 0 32 32">
<title>location</title>
<path class="path1" d="M26.501 7.964c-0.114-0.427-0.345-0.882-0.516-1.28-2.048-4.921-6.522-6.684-10.134-6.684-4.836 0-10.162 3.243-10.873 9.927v1.366c0 0.057 0.020 0.569 0.048 0.825 0.399 3.185 2.912 6.571 4.789 9.756 2.020 3.413 4.115 6.77 6.192 10.126 1.28-2.19 2.556-4.409 3.807-6.542 0.341-0.626 0.737-1.252 1.078-1.849 0.227-0.398 0.662-0.796 0.861-1.166 2.020-3.698 5.27-7.424 5.27-11.093v-1.507c0-0.398-0.493-1.792-0.521-1.877zM15.94 14.82c-1.422 0-2.978-0.711-3.746-2.674-0.114-0.312-0.105-0.939-0.105-0.996v-0.882c0-2.502 2.125-3.64 3.973-3.64 2.276 0 4.036 1.821 4.036 4.096s-1.883 4.096-4.158 4.096z"></path>
</symbol>
<symbol id="icon-phone" viewBox="0 0 32 32">
<title>phone</title>
<path class="path1" d="M31.985 25.248c0.068 0.52-0.090 0.971-0.474 1.355l-4.506 4.471c-0.203 0.226-0.469 0.418-0.796 0.576s-0.649 0.26-0.965 0.305c-0.023 0-0.090 0.006-0.203 0.017s-0.26 0.017-0.44 0.017c-0.429 0-1.124-0.073-2.084-0.22s-2.134-0.508-3.523-1.084c-1.389-0.576-2.964-1.44-4.726-2.592s-3.636-2.733-5.623-4.743c-1.581-1.558-2.891-3.049-3.93-4.472s-1.874-2.738-2.507-3.947c-0.632-1.208-1.107-2.304-1.423-3.286s-0.531-1.829-0.644-2.541-0.158-1.27-0.136-1.677c0.023-0.407 0.034-0.632 0.034-0.678 0.045-0.316 0.147-0.638 0.305-0.965s0.35-0.593 0.576-0.796l4.506-4.506c0.316-0.316 0.678-0.474 1.084-0.474 0.294 0 0.553 0.085 0.779 0.254s0.418 0.378 0.576 0.627l3.625 6.877c0.203 0.361 0.26 0.757 0.169 1.186s-0.282 0.79-0.576 1.084l-1.66 1.66c-0.045 0.045-0.085 0.119-0.119 0.22s-0.051 0.186-0.051 0.254c0.090 0.474 0.294 1.016 0.61 1.626 0.271 0.542 0.689 1.203 1.253 1.982s1.366 1.677 2.405 2.693c1.016 1.039 1.92 1.846 2.71 2.422s1.451 0.999 1.982 1.27 0.937 0.435 1.22 0.491l0.423 0.085c0.045 0 0.119-0.017 0.22-0.051s0.175-0.073 0.22-0.119l1.931-1.965c0.407-0.361 0.881-0.542 1.423-0.542 0.384 0 0.689 0.068 0.915 0.203h0.034l6.538 3.862c0.474 0.294 0.757 0.666 0.847 1.118z"></path>
</symbol>
<symbol id="icon-play" viewBox="0 0 32 32">
<title>play</title>
<path d="M1.135 32c-0.136 0-0.272-0.029-0.399-0.089-0.331-0.155-0.542-0.487-0.542-0.852v-30.118c0-0.365 0.211-0.698 0.542-0.852 0.329-0.154 0.721-0.104 1.001 0.129l18.071 15.059c0.215 0.179 0.339 0.444 0.339 0.723s-0.124 0.544-0.339 0.723l-18.071 15.059c-0.172 0.144-0.386 0.218-0.602 0.218zM2.076 2.95v26.099l15.659-13.050-15.659-13.050z"></path>
<path d="M12.794 32c-0.136 0-0.272-0.029-0.399-0.089-0.331-0.155-0.542-0.487-0.542-0.852v-4.663c0-0.52 0.422-0.941 0.941-0.941s0.941 0.422 0.941 0.941v2.654l15.659-13.050-15.659-13.050v2.654c0 0.52-0.422 0.941-0.941 0.941s-0.941-0.422-0.941-0.941v-4.663c0-0.365 0.211-0.698 0.542-0.852 0.329-0.154 0.721-0.104 1.001 0.129l18.071 15.059c0.215 0.179 0.339 0.444 0.339 0.723s-0.124 0.544-0.339 0.723l-18.071 15.059c-0.172 0.144-0.386 0.218-0.602 0.218z"></path>
</symbol>
<symbol id="icon-check_box_outline_blank" viewBox="0 0 32 32">
<title>check_box_outline_blank</title>
<path class="path1" d="M25.312 4c1.437 0 2.688 1.251 2.688 2.688v18.625c0 1.437-1.251 2.688-2.688 2.688h-18.625c-1.437 0-2.688-1.251-2.688-2.688v-18.625c0-1.437 1.251-2.688 2.688-2.688h18.625zM25.312 6.688h-18.625v18.625h18.625v-18.625z"></path>
</symbol>
<symbol id="icon-check_box" viewBox="0 0 32 32">
<title>check_box</title>
<path class="path1" d="M13.312 22.688l12-12-1.875-1.937-10.125 10.125-4.751-4.751-1.875 1.875zM25.312 4c1.5 0 2.688 1.251 2.688 2.688v18.625c0 1.437-1.188 2.688-2.688 2.688h-18.625c-1.5 0-2.688-1.251-2.688-2.688v-18.625c0-1.437 1.188-2.688 2.688-2.688h18.625z"></path>
</symbol>
<symbol id="icon-chevron-down" viewBox="0 0 32 32">
<title>chevron-down</title>
<path class="path1" d="M9.875 10.437l6.125 6.125 6.125-6.125 1.875 1.875-8 8-8-8z"></path>
</symbol>
<symbol id="icon-chevron-left" viewBox="0 0 32 32">
<title>chevron-left</title>
<path class="path1" d="M20.563 21.437l-1.875 1.875-8-8 8-8 1.875 1.875-6.125 6.125z"></path>
</symbol>
<symbol id="icon-chevron-right" viewBox="0 0 32 32">
<title>chevron-right</title>
<path class="path1" d="M11.437 21.812l6.125-6.125-6.125-6.125 1.875-1.875 8 8-8 8z"></path>
</symbol>
<symbol id="icon-chevron-up" viewBox="0 0 32 32">
<title>chevron-up</title>
<path class="path1" d="M9.875 20.563l-1.875-1.875 8-8 8 8-1.875 1.875-6.125-6.125z"></path>
</symbol>
<symbol id="icon-facebook" viewBox="0 0 19 32">
<title>facebook</title>
<path class="path1" d="M17.125 0.214v4.714h-2.804q-1.536 0-2.071 0.643t-0.536 1.929v3.375h5.232l-0.696 5.286h-4.536v13.554h-5.464v-13.554h-4.554v-5.286h4.554v-3.893q0-3.321 1.857-5.152t4.946-1.83q2.625 0 4.071 0.214z"></path>
</symbol>
<symbol id="icon-instagram" viewBox="0 0 27 32">
<title>instagram</title>
<path class="path1" d="M18.286 16q0-1.893-1.339-3.232t-3.232-1.339-3.232 1.339-1.339 3.232 1.339 3.232 3.232 1.339 3.232-1.339 1.339-3.232zM20.75 16q0 2.929-2.054 4.982t-4.982 2.054-4.982-2.054-2.054-4.982 2.054-4.982 4.982-2.054 4.982 2.054 2.054 4.982zM22.679 8.679q0 0.679-0.482 1.161t-1.161 0.482-1.161-0.482-0.482-1.161 0.482-1.161 1.161-0.482 1.161 0.482 0.482 1.161zM13.714 4.75q-0.125 0-1.366-0.009t-1.884 0-1.723 0.054-1.839 0.179-1.277 0.33q-0.893 0.357-1.571 1.036t-1.036 1.571q-0.196 0.518-0.33 1.277t-0.179 1.839-0.054 1.723 0 1.884 0.009 1.366-0.009 1.366 0 1.884 0.054 1.723 0.179 1.839 0.33 1.277q0.357 0.893 1.036 1.571t1.571 1.036q0.518 0.196 1.277 0.33t1.839 0.179 1.723 0.054 1.884 0 1.366-0.009 1.366 0.009 1.884 0 1.723-0.054 1.839-0.179 1.277-0.33q0.893-0.357 1.571-1.036t1.036-1.571q0.196-0.518 0.33-1.277t0.179-1.839 0.054-1.723 0-1.884-0.009-1.366 0.009-1.366 0-1.884-0.054-1.723-0.179-1.839-0.33-1.277q-0.357-0.893-1.036-1.571t-1.571-1.036q-0.518-0.196-1.277-0.33t-1.839-0.179-1.723-0.054-1.884 0-1.366 0.009zM27.429 16q0 4.089-0.089 5.661-0.179 3.714-2.214 5.75t-5.75 2.214q-1.571 0.089-5.661 0.089t-5.661-0.089q-3.714-0.179-5.75-2.214t-2.214-5.75q-0.089-1.571-0.089-5.661t0.089-5.661q0.179-3.714 2.214-5.75t5.75-2.214q1.571-0.089 5.661-0.089t5.661 0.089q3.714 0.179 5.75 2.214t2.214 5.75q0.089 1.571 0.089 5.661z"></path>
</symbol>
<symbol id="icon-google_plus" viewBox="0 0 36 28">
<title>google plus</title>
<path d="M22.453 14.266c0 6.547-4.391 11.188-11 11.188-6.328 0-11.453-5.125-11.453-11.453s5.125-11.453 11.453-11.453c3.094 0 5.672 1.125 7.672 3l-3.109 2.984c-0.844-0.812-2.328-1.766-4.562-1.766-3.906 0-7.094 3.234-7.094 7.234s3.187 7.234 7.094 7.234c4.531 0 6.234-3.266 6.5-4.937h-6.5v-3.938h10.813c0.109 0.578 0.187 1.156 0.187 1.906zM36 12.359v3.281h-3.266v3.266h-3.281v-3.266h-3.266v-3.281h3.266v-3.266h3.281v3.266h3.266z"></path>
</symbol>
<symbol id="icon-pinterest" viewBox="0 0 23 32">
<title>pinterest</title>
<path class="path1" d="M0 10.661q0-1.929 0.67-3.634t1.848-2.973 2.714-2.196 3.304-1.393 3.607-0.464q2.821 0 5.25 1.188t3.946 3.455 1.518 5.125q0 1.714-0.339 3.357t-1.071 3.161-1.786 2.67-2.589 1.839-3.375 0.688q-1.214 0-2.411-0.571t-1.714-1.571q-0.179 0.696-0.5 2.009t-0.42 1.696-0.366 1.268-0.464 1.268-0.571 1.116-0.821 1.384-1.107 1.545l-0.25 0.089-0.161-0.179q-0.268-2.804-0.268-3.357 0-1.643 0.384-3.688t1.188-5.134 0.929-3.625q-0.571-1.161-0.571-3.018 0-1.482 0.929-2.786t2.357-1.304q1.089 0 1.696 0.723t0.607 1.83q0 1.179-0.786 3.411t-0.786 3.339q0 1.125 0.804 1.866t1.946 0.741q0.982 0 1.821-0.446t1.402-1.214 1-1.696 0.679-1.973 0.357-1.982 0.116-1.777q0-3.089-1.955-4.813t-5.098-1.723q-3.571 0-5.964 2.313t-2.393 5.866q0 0.786 0.223 1.518t0.482 1.161 0.482 0.813 0.223 0.545q0 0.5-0.268 1.304t-0.661 0.804q-0.036 0-0.304-0.054-0.911-0.268-1.616-1t-1.089-1.688-0.58-1.929-0.196-1.902z"></path>
</symbol>
<symbol id="icon-radio_button_checked" viewBox="0 0 32 32">
<title>radio_button_checked</title>
<path class="path1" d="M16 26.688c5.875 0 10.688-4.812 10.688-10.688s-4.812-10.688-10.688-10.688-10.688 4.812-10.688 10.688 4.812 10.688 10.688 10.688zM16 2.688c7.375 0 13.312 5.937 13.312 13.312s-5.937 13.312-13.312 13.312-13.312-5.937-13.312-13.312 5.937-13.312 13.312-13.312zM16 9.312c3.688 0 6.688 3 6.688 6.688s-3 6.688-6.688 6.688-6.688-3-6.688-6.688 3-6.688 6.688-6.688z"></path>
</symbol>
<symbol id="icon-radio_button_unchecked" viewBox="0 0 32 32">
<title>radio_button_unchecked</title>
<path class="path1" d="M16 26.688c5.875 0 10.688-4.812 10.688-10.688s-4.812-10.688-10.688-10.688-10.688 4.812-10.688 10.688 4.812 10.688 10.688 10.688zM16 2.688c7.375 0 13.312 5.937 13.312 13.312s-5.937 13.312-13.312 13.312-13.312-5.937-13.312-13.312 5.937-13.312 13.312-13.312z"></path>
</symbol>
<symbol id="icon-twitter" viewBox="0 0 30 32">
<title>twitter</title>
<path class="path1" d="M28.929 7.286q-1.196 1.75-2.893 2.982 0.018 0.25 0.018 0.75 0 2.321-0.679 4.634t-2.063 4.437-3.295 3.759-4.607 2.607-5.768 0.973q-4.839 0-8.857-2.589 0.625 0.071 1.393 0.071 4.018 0 7.161-2.464-1.875-0.036-3.357-1.152t-2.036-2.848q0.589 0.089 1.089 0.089 0.768 0 1.518-0.196-2-0.411-3.313-1.991t-1.313-3.67v-0.071q1.214 0.679 2.607 0.732-1.179-0.786-1.875-2.054t-0.696-2.75q0-1.571 0.786-2.911 2.161 2.661 5.259 4.259t6.634 1.777q-0.143-0.679-0.143-1.321 0-2.393 1.688-4.080t4.080-1.688q2.5 0 4.214 1.821 1.946-0.375 3.661-1.393-0.661 2.054-2.536 3.179 1.661-0.179 3.321-0.893z"></path>
</symbol>
<symbol id="icon-linkedin" viewBox="0 0 32 32">
<title>linkedin</title>
<path d="M12 12h5.535v2.837h0.079c0.77-1.381 2.655-2.837 5.464-2.837 5.842 0 6.922 3.637 6.922 8.367v9.633h-5.769v-8.54c0-2.037-0.042-4.657-3.001-4.657-3.005 0-3.463 2.218-3.463 4.509v8.688h-5.767v-18z"></path>
<path d="M2 12h6v18h-6v-18z"></path>
<path d="M8 7c0 1.657-1.343 3-3 3s-3-1.343-3-3c0-1.657 1.343-3 3-3s3 1.343 3 3z"></path>
</symbol>
<symbol id="icon-youtube" viewBox="0 0 27 32">
<title>youtube</title>
<path class="path1" d="M17.339 22.214v3.768q0 1.196-0.696 1.196-0.411 0-0.804-0.393v-5.375q0.393-0.393 0.804-0.393 0.696 0 0.696 1.196zM23.375 22.232v0.821h-1.607v-0.821q0-1.214 0.804-1.214t0.804 1.214zM6.125 18.339h1.911v-1.679h-5.571v1.679h1.875v10.161h1.786v-10.161zM11.268 28.5h1.589v-8.821h-1.589v6.75q-0.536 0.75-1.018 0.75-0.321 0-0.375-0.375-0.018-0.054-0.018-0.625v-6.5h-1.589v6.982q0 0.875 0.143 1.304 0.214 0.661 1.036 0.661 0.857 0 1.821-1.089v0.964zM18.929 25.857v-3.518q0-1.304-0.161-1.768-0.304-1-1.268-1-0.893 0-1.661 0.964v-3.875h-1.589v11.839h1.589v-0.857q0.804 0.982 1.661 0.982 0.964 0 1.268-0.982 0.161-0.482 0.161-1.786zM24.964 25.679v-0.232h-1.625q0 0.911-0.036 1.089-0.125 0.643-0.714 0.643-0.821 0-0.821-1.232v-1.554h3.196v-1.839q0-1.411-0.482-2.071-0.696-0.911-1.893-0.911-1.214 0-1.911 0.911-0.5 0.661-0.5 2.071v3.089q0 1.411 0.518 2.071 0.696 0.911 1.929 0.911 1.286 0 1.929-0.946 0.321-0.482 0.375-0.964 0.036-0.161 0.036-1.036zM14.107 9.375v-3.75q0-1.232-0.768-1.232t-0.768 1.232v3.75q0 1.25 0.768 1.25t0.768-1.25zM26.946 22.786q0 4.179-0.464 6.25-0.25 1.054-1.036 1.768t-1.821 0.821q-3.286 0.375-9.911 0.375t-9.911-0.375q-1.036-0.107-1.83-0.821t-1.027-1.768q-0.464-2-0.464-6.25 0-4.179 0.464-6.25 0.25-1.054 1.036-1.768t1.839-0.839q3.268-0.357 9.893-0.357t9.911 0.357q1.036 0.125 1.83 0.839t1.027 1.768q0.464 2 0.464 6.25zM9.125 0h1.821l-2.161 7.125v4.839h-1.786v-4.839q-0.25-1.321-1.089-3.786-0.661-1.839-1.161-3.339h1.893l1.268 4.696zM15.732 5.946v3.125q0 1.446-0.5 2.107-0.661 0.911-1.893 0.911-1.196 0-1.875-0.911-0.5-0.679-0.5-2.107v-3.125q0-1.429 0.5-2.089 0.679-0.911 1.875-0.911 1.232 0 1.893 0.911 0.5 0.661 0.5 2.089zM21.714 3.054v8.911h-1.625v-0.982q-0.946 1.107-1.839 1.107-0.821 0-1.054-0.661-0.143-0.429-0.143-1.339v-7.036h1.625v6.554q0 0.589 0.018 0.625 0.054 0.393 0.375 0.393 0.482 0 1.018-0.768v-6.804h1.625z"></path>
</symbol>
<symbol id="icon-arrow-up" viewBox="0 0 24 24">
<title>arrow-up</title>
<path class="path1" d="M6.984 14.016l5.016-5.016 5.016 5.016h-10.031z"></path>
</symbol>
<symbol id="icon-send" viewBox="0 0 24 24">
<title>send</title>
<path d="M2.016 21v-6.984l15-2.016-15-2.016v-6.984l21 9z"></path>
</symbol>
<symbol id="icon-download" viewBox="0 0 471.2 471.2">
<title>Download</title>
<path d="M457.7,230.15c-7.5,0-13.5,6-13.5,13.5v122.8c0,33.4-27.2,60.5-60.5,60.5H87.5c-33.4,0-60.5-27.2-60.5-60.5v-124.8
    c0-7.5-6-13.5-13.5-13.5s-13.5,6-13.5,13.5v124.8c0,48.3,39.3,87.5,87.5,87.5h296.2c48.3,0,87.5-39.3,87.5-87.5v-122.8
    C471.2,236.25,465.2,230.15,457.7,230.15z"></path>
<path d="M226.1,346.75c2.6,2.6,6.1,4,9.5,4s6.9-1.3,9.5-4l85.8-85.8c5.3-5.3,5.3-13.8,0-19.1c-5.3-5.3-13.8-5.3-19.1,0l-62.7,62.8
  V30.75c0-7.5-6-13.5-13.5-13.5s-13.5,6-13.5,13.5v273.9l-62.8-62.8c-5.3-5.3-13.8-5.3-19.1,0c-5.3,5.3-5.3,13.8,0,19.1
  L226.1,346.75z"></path>
</symbol>
<!-- ShelfAware Specific -->
<symbol id="icon-bulb" viewBox="0 0 24 24">
  <title>Bulb</title>
  <g transform="translate(5, 1)" fill="#FFFFFF" fill-rule="nonzero">
    <path d="M9.33269231,17.6923077 L4.025,17.6923077 C3.78072021,17.6923077 3.58269231,17.8903356 3.58269231,18.1346154 C3.58269231,18.3788952 3.78072021,18.5769231 4.025,18.5769231 L9.33269231,18.5769231 C9.5769721,18.5769231 9.775,18.3788952 9.775,18.1346154 C9.775,17.8903356 9.5769721,17.6923077 9.33269231,17.6923077 Z" fill-opacity="0.75"></path>
    <path d="M9.33269231,19.4615385 L4.025,19.4615385 C3.78072021,19.4615385 3.58269231,19.6595664 3.58269231,19.9038462 C3.58269231,20.1481259 3.78072021,20.3461538 4.025,20.3461538 L4.51153846,20.3461538 C4.72083513,21.3768741 5.62709083,22.1176017 6.67884615,22.1176017 C7.73060148,22.1176017 8.63685718,21.3768741 8.84615385,20.3461538 L9.33269231,20.3461538 C9.5769721,20.3461538 9.775,20.1481259 9.775,19.9038462 C9.775,19.6595664 9.5769721,19.4615385 9.33269231,19.4615385 Z" fill-opacity="0.5"></path>
    <path d="M6.67884615,0.884615385 C4.90724235,0.844496539 3.19629169,1.53060785 1.94325747,2.78364208 C0.690223237,4.03667631 0.00411192404,5.74762697 0.0442307692,7.51923077 C0.0442307692,9.48369615 1.10576923,11.2045385 2.0424,12.7223615 C2.83492692,14.0061154 3.58269231,15.2198962 3.58269231,16.3653846 C3.58269231,16.6096644 3.78072021,16.8076923 4.025,16.8076923 L9.33269231,16.8076923 C9.5769721,16.8076923 9.775,16.6096644 9.775,16.3653846 C9.775,15.2198962 10.5231192,14.0061154 11.3152923,12.7223615 C12.2519231,11.2045385 13.3134615,9.48369615 13.3134615,7.51923077 C13.3535804,5.74762697 12.6674691,4.03667631 11.4144348,2.78364208 C10.1614006,1.53060785 8.45044996,0.844496539 6.67884615,0.884615385 Z"></path>
  </g>
</symbol>
<symbol id="icon-clipboard" viewBox="0 0 24 24">
  <title>Clipboard</title>
  <g transform="translate(5, 1)" fill="#FFFFFF" fill-rule="nonzero">
    <path d="M13.64,1.76 L12.32,1.76 L12.32,0.44 C12.32,0.19699471 12.1230053,1.48797825e-17 11.88,0 C11.6369947,-1.48797825e-17 11.44,0.19699471 11.44,0.44 L11.44,1.76 L7.92,1.76 L7.92,0.44 C7.92,0.19699471 7.72300529,1.48797825e-17 7.48,0 C7.23699471,-1.48797825e-17 7.04,0.19699471 7.04,0.44 L7.04,1.76 L3.52,1.76 L3.52,0.44 C3.52,0.19699471 3.32300529,1.48797825e-17 3.08,0 C2.83699471,-1.48797825e-17 2.64,0.19699471 2.64,0.44 L2.64,1.76 L1.32,1.76 C0.591305816,1.76077603 0.000776032805,2.35130582 0,3.08 L0,4.4 L14.96,4.4 L14.96,3.08 C14.959224,2.35130582 14.3686942,1.76077603 13.64,1.76 Z"></path>
    <path d="M0,20.68 C0.000776032805,21.4086942 0.591305816,21.999224 1.32,22 L13.64,22 C14.3686942,21.999224 14.959224,21.4086942 14.96,20.68 L14.96,5.28 L0,5.28 L0,20.68 Z"></path>
  </g>
</symbol>
<symbol id="icon-conversion" viewBox="0 0 24 24">
  <title>Conversion</title>
  <g transform="translate(2, 2)" fill="#FFFFFF" fill-rule="nonzero">
    <path d="M22.7272727,1.36363636 L22.7272727,14.0909091 C22.7272727,14.8440247 22.1167519,15.4545455 21.3636364,15.4545455 L16.8181818,15.4545455 C16.0650663,15.4545455 15.4545455,14.8440247 15.4545455,14.0909091 L15.4545455,9.95454545 C16.3575476,10.1379079 17.2819003,9.75790257 17.7948371,8.99244158 C18.307774,8.22698059 18.307774,7.22756487 17.7948371,6.46210388 C17.2819003,5.69664288 16.3575476,5.31663758 15.4545455,5.5 L15.4545455,1.36363636 C15.4545455,0.610520796 16.0650663,0 16.8181818,0 L21.3636364,0 C22.1167519,1.61486985e-15 22.7272727,0.610520796 22.7272727,1.36363636 Z M15.9090909,9.09090909 C16.6032537,9.09369007 17.1887231,8.57455383 17.2690335,7.8850468 C17.3493439,7.19553977 16.8988615,6.55574095 16.2226421,6.39890655 C15.5464227,6.24207214 14.8603041,6.61826104 14.6289091,7.27272727 L11.8181818,7.27272727 C11.3163747,7.27337835 10.909742,7.68001107 10.9090909,8.18181818 L10.9090909,11.8181818 L8.09836364,11.8181818 C7.8769835,11.1920242 7.23669717,10.8164218 6.58212134,10.9287292 C5.9275455,11.0410367 5.44907858,11.6085869 5.44907858,12.2727273 C5.44907858,12.9368677 5.9275455,13.5044179 6.58212134,13.6167253 C7.23669717,13.7290328 7.8769835,13.3534303 8.09836364,12.7272727 L10.9090909,12.7272727 C11.410898,12.7266216 11.8175307,12.3199889 11.8181818,11.8181818 L11.8181818,8.18181818 L14.6289091,8.18181818 C14.8198879,8.72550458 15.3328388,9.08976453 15.9090909,9.09090909 Z"></path>
    <path d="M4.54545455,12.2727273 C4.54531523,11.5901757 4.85194506,10.9437006 5.3806032,10.5119631 C5.90926135,10.0802256 6.60396602,9.90894421 7.27272727,10.0454545 L7.27272727,5.90909091 C7.27272727,5.15597534 6.66220648,4.54545455 5.90909091,4.54545455 L1.36363636,4.54545455 C0.610520796,4.54545455 9.2230057e-17,5.15597534 0,5.90909091 L0,18.6363636 C9.2230057e-17,19.3894792 0.610520796,20 1.36363636,20 L5.90909091,20 C6.66220648,20 7.27272727,19.3894792 7.27272727,18.6363636 L7.27272727,14.5 C6.60396602,14.6365103 5.90926135,14.4652289 5.3806032,14.0334914 C4.85194506,13.601754 4.54531523,12.9552789 4.54545455,12.2727273 Z" fill-opacity="0.75"></path>
  </g>
</symbol>
<symbol id="icon-cube" viewBox="0 0 24 24">
<title>Cube</title>
<g transform="translate(2, 2)" fill="#FFFFFF" fill-rule="nonzero">
  <path d="M20.24,5.72 L10.12,0 L0,5.72 L0,16.28 C0,16.286952 0.005016,16.292496 0.00528,16.299448 C0.00648869695,16.3690426 0.024609717,16.4372984 0.05808,16.498328 L0.060896,16.501144 C0.0824889635,16.5285979 0.1072741,16.553383 0.134728,16.574976 C0.161006893,16.6088531 0.192038969,16.6387589 0.226864,16.663768 L0.229592,16.666408 L9.909592,21.946408 C10.04082,22.0180115 10.199444,22.0180115 10.330672,21.946408 L20.010672,16.666408 L20.0134,16.663768 C20.0470101,16.6394135 20.0770456,16.610474 20.102632,16.577792 C20.1313215,16.5554963 20.1571274,16.5297199 20.179456,16.501056 L20.182184,16.498328 C20.2156163,16.4373785 20.2337362,16.3692174 20.234984,16.299712 C20.234984,16.29276 20.240352,16.287128 20.240352,16.280088 L20.24,5.72 Z M19.36,15.52188 L13.85824,12.377992 C13.7216286,12.2979876 13.552569,12.2975415 13.4155373,12.3768237 C13.2785056,12.4561059 13.19463,12.6028923 13.1958992,12.7612013 C13.1971684,12.9195104 13.2833867,13.0649331 13.421672,13.142008 L18.897472,16.2712 L10.56,20.818952 L10.56,11.191752 L19.36,6.217376 L19.36,15.52188 Z M9.68,1.259544 L9.68,6.6 C9.68,6.84300529 9.87699471,7.04 10.12,7.04 C10.3630053,7.04 10.56,6.84300529 10.56,6.6 L10.56,1.259544 L18.451576,5.72 L10.12,10.429144 L1.788424,5.72 L9.68,1.259544 Z M9.68,11.191312 L9.68,20.818512 L1.34244,16.2712 L6.81824,13.142184 C6.9565253,13.0651091 7.04274355,12.9196864 7.04401276,12.7613773 C7.04528197,12.6030683 6.96140645,12.4562819 6.82437471,12.3769997 C6.68734297,12.2977175 6.51828337,12.2981636 6.381672,12.378168 L0.88,15.521792 L0.88,6.217376 L9.68,11.191312 Z"></path>
</g>
</symbol>
<symbol id="icon-dollars" viewBox="0 0 24 24">
  <title>Dollars</title>
  <g transform="translate(1, 2)" fill="#FFFFFF" fill-rule="nonzero">
    <path d="M23,0 L2.5,0 C2.22385763,-1.69088438e-17 2,0.223857625 2,0.5 C2,0.776142375 2.22385763,1 2.5,1 L23,1 C23.5520563,1.00055123 23.9994488,1.44794374 24,2 L24,14.5 C24,14.7761424 24.2238576,15 24.5,15 C24.7761424,15 25,14.7761424 25,14.5 L25,2 C24.9987325,0.895955928 24.1040441,0.00126746556 23,0 Z" fill-opacity="0.75"></path>
    <path d="M22,2 L1,2 C0.44771525,2 6.76353751e-17,2.44771525 0,3 L0,16 C6.76353751e-17,16.5522847 0.44771525,17 1,17 L22,17 C22.5522847,17 23,16.5522847 23,16 L23,3 C23,2.44771525 22.5522847,2 22,2 Z M13,9 C13.5522847,9 14,9.44771525 14,10 L14,12 C14,12.5522847 13.5522847,13 13,13 L12,13 L12,13.5 C12,13.7761424 11.7761424,14 11.5,14 C11.2238576,14 11,13.7761424 11,13.5 L11,13 L9.5,13 C9.22385763,13 9,12.7761424 9,12.5 C9,12.2238576 9.22385763,12 9.5,12 L13,12 L13,10 L10,10 C9.44771525,10 9,9.55228475 9,9 L9,7 C9,6.44771525 9.44771525,6 10,6 L11,6 L11,5.5 C11,5.22385763 11.2238576,5 11.5,5 C11.7761424,5 12,5.22385763 12,5.5 L12,6 L13.5,6 C13.7761424,6 14,6.22385763 14,6.5 C14,6.77614237 13.7761424,7 13.5,7 L10,7 L10,9 L13,9 Z"></path>
  </g>
</symbol>
<symbol id="icon-exclamation" viewBox="0 0 24 24">
  <title>Exclamation Point</title>
  <g transform="translate(2, 2)" fill="#FFFFFF" fill-rule="nonzero">
    <rect fill="#E8EAEA" x="0" y="0" width="16" height="16" rx="1"></rect>
    <path d="M7.35135135,10 L7.06756757,5.12072893 L7,3 L9,3 L8.93243243,5.12072893 L8.64864865,10 L7.35135135,10 Z M7,12.0054054 C7,11.4324324 7.42696629,11 8,11 C8.57303371,11 9,11.4324324 9,12.0054054 C9,12.5675676 8.57303371,13 8,13 C7.42696629,13 7,12.5675676 7,12.0054054 Z" fill="#4849C5"></path>
  </g>
</symbol>
<symbol id="icon-graph" viewBox="0 0 24 24">
<title>Graph</title>
<g transform="translate(2, 2)" fill="#FFFFFF" fill-rule="nonzero">
  <rect fill-opacity="0.5" x="1.59992" y="14.4" width="3.2" height="5.6" rx="1.5"></rect>
  <rect fill-opacity="0.75" x="7.19992" y="10.4" width="3.2" height="9.6" rx="1.5"></rect>
  <rect x="12.79992" y="5.6" width="3.2" height="14.4" rx="1.5"></rect>
  <path d="M16.79832,0.392 C16.7958069,0.359323108 16.7892777,0.327080273 16.77888,0.296 C16.7758232,0.277049166 16.7714391,0.258336449 16.76576,0.24 C16.7543818,0.219433015 16.7412391,0.199892949 16.72648,0.1816 C16.7123297,0.156869831 16.6955382,0.133747874 16.6764,0.11264 L16.67104,0.10544 C16.6543436,0.0933913971 16.6367146,0.0826909378 16.61832,0.07344 C16.5954982,0.055910608 16.5707516,0.041041194 16.54456,0.02912 C16.5162066,0.0198068153 16.48686,0.0138462168 16.45712,0.01136 C16.4384035,0.00609723612 16.4193059,0.00229910138 16.4,0 L13.2,0 C12.9790861,-1.3527075e-17 12.8,0.1790861 12.8,0.4 C12.8,0.6209139 12.9790861,0.8 13.2,0.8 L15.46752,0.8 C9.83288,6.568 1.104,11.1984 1.014,11.24608 C0.882526542,11.3096984 0.796180188,11.4399184 0.788747596,11.5857859 C0.781315004,11.7316535 0.853977949,11.8699757 0.978303984,11.9466282 C1.10263002,12.0232808 1.25885143,12.0260759 1.38584,11.95392 C1.47816,11.90544 10.2708,7.24216 16,1.39904 L16,3.6 C16,3.8209139 16.1790861,4 16.4,4 C16.6209139,4 16.8,3.8209139 16.8,3.6 L16.8,0.4 L16.79832,0.392 Z"></path>
  </g>
</symbol>
<symbol id="icon-inbox" viewBox="0 0 24 24">
  <title>Inbox</title>
  <g transform="translate(2, 2)" fill="#FFFFFF" fill-rule="nonzero">
    <path d="M20.68,0 L1.32,0 C0.591305816,0.000776032805 0.000776032805,0.591305816 0,1.32 L0,20.68 C0.000776032805,21.4086942 0.591305816,21.999224 1.32,22 L20.68,22 C21.4086942,21.999224 21.999224,21.4086942 22,20.68 L22,1.32 C21.999224,0.591305816 21.4086942,0.000776032805 20.68,0 Z M19.36,15.84 C19.36,16.3260106 18.9660106,16.72 18.48,16.72 L15.136,16.72 C15.0387979,16.72 14.96,16.7987979 14.96,16.896 L14.96,18.48 C14.96,18.9660106 14.5660106,19.36 14.08,19.36 L7.92,19.36 C7.43398942,19.36 7.04,18.9660106 7.04,18.48 L7.04,16.896 C7.04,16.7987979 6.96120212,16.72 6.864,16.72 L3.52,16.72 C3.03398942,16.72 2.64,16.3260106 2.64,15.84 L2.64,3.52 C2.64,3.03398942 3.03398942,2.64 3.52,2.64 L18.48,2.64 C18.9660106,2.64 19.36,3.03398942 19.36,3.52 L19.36,15.84 Z"></path>
  </g>
</symbol>
<symbol id="icon-inbox-star" viewBox="0 0 24 24">
  <title>Inbox w/ Star</title>
  <g transform="translate(2, 2)" fill="#FFFFFF" fill-rule="nonzero">
    <path d="M18.8,0 L1.2,0 C0.537550741,0.000705484368 0.000705484368,0.537550741 0,1.2 L0,18.8 C0.000705484368,19.4624493 0.537550741,19.9992945 1.2,20 L18.8,20 C19.4624493,19.9992945 19.9992945,19.4624493 20,18.8 L20,1.2 C19.9992945,0.537550741 19.4624493,0.000705484368 18.8,0 Z M17.6,14.4 C17.6,14.8418278 17.2418278,15.2 16.8,15.2 L13.76,15.2 C13.6716344,15.2 13.6,15.2716344 13.6,15.36 L13.6,16.8 C13.6,17.2418278 13.2418278,17.6 12.8,17.6 L7.2,17.6 C6.7581722,17.6 6.4,17.2418278 6.4,16.8 L6.4,15.36 C6.4,15.2716344 6.32836556,15.2 6.24,15.2 L3.2,15.2 C2.7581722,15.2 2.4,14.8418278 2.4,14.4 L2.4,3.2 C2.4,2.7581722 2.7581722,2.4 3.2,2.4 L16.8,2.4 C17.2418278,2.4 17.6,2.7581722 17.6,3.2 L17.6,14.4 Z"></path>
    <path d="M13.28216,7.264 L11.25104,6.95776 L10.32704,5.016 C10.2710919,4.88506169 10.1424304,4.80012244 10.00004,4.80012244 C9.85764959,4.80012244 9.72898807,4.88506169 9.67304,5.016 L8.74904,6.95776 L6.71784,7.264 C6.57250636,7.2966071 6.45640905,7.40567883 6.41480498,7.54869698 C6.37320091,7.69171514 6.41267518,7.84604274 6.51784,7.95152 L7.976,9.42576 L7.62808,11.52928 C7.59412846,11.6702569 7.64427009,11.8181929 7.75694303,11.9094727 C7.86961597,12.0007524 8.02473658,12.0191056 8.1556,11.95664 L10,10.9508 L11.84464,11.95664 C11.9755034,12.0191056 12.130624,12.0007524 12.243297,11.9094727 C12.3559699,11.8181929 12.4061115,11.6702569 12.37216,11.52928 L12.024,9.42576 L13.4824,7.9516 C13.5876103,7.84609271 13.6270838,7.69169882 13.5854232,7.54864148 C13.5437626,7.40558415 13.4275671,7.29652352 13.28216,7.264 Z" fill-opacity="0.75"></path>
  </g>
</symbol>
<symbol id="icon-molecule" viewBox="0 0 24 24">
  <title>Molecule</title>
  <g transform="translate(0, 2)" fill="#FFFFFF" fill-rule="nonzero">
    <circle cx="11" cy="2" r="2"></circle>
    <circle cx="2" cy="9" r="2"></circle>
    <circle opacity="0.75" cx="21" cy="9" r="2"></circle>
    <circle opacity="0.75" cx="6" cy="21" r="2"></circle>
    <circle opacity="0.4" cx="18" cy="21" r="2"></circle>
    <path d="M3.59683961,8 L8,3.84117426 C7.81899686,3.58954209 7.67842746,3.30495963 7.58450228,3 L3,7.3301656 L3.00202805,7.33204742 C3.2323223,7.51626089 3.4333599,7.74201908 3.59683961,8 Z"></path>
    <path d="M8,21 C8.066274,21.3299444 8.066274,21.6700556 8,22 L15,22 C14.933726,21.6700556 14.933726,21.3299444 15,21 L8,21 Z" opacity="0.75"></path>
    <path d="M20.152764,12 L18,18.6977911 C18.2817652,18.7480925 18.5536007,18.8502908 18.8038404,19 L21,12.1678733 L20.9960859,12.1678733 C20.7082458,12.1646556 20.4230296,12.1078799 20.152764,12 Z" opacity="0.75"></path>
    <path d="M17.6854192,10.1520772 L13.7380358,11.5899935 C13.3248771,10.9223637 12.5817845,10.5245421 11.7904711,10.5473464 C10.9991576,10.5701508 10.2807647,11.01009 9.90764147,11.7003792 L4.25710927,10 C4.2202898,10.2931032 4.13334863,10.5778872 4,10.8421855 L9.64973152,12.542037 C9.64332603,12.6098516 9.62900264,12.6756432 9.62900264,12.745217 C9.6077326,13.583645 10.0705648,14.3610678 10.8223264,14.749652 C11.574088,15.1382362 12.4839358,15.0703492 13.1681938,14.5746184 C13.8524518,14.0788877 14.1920258,13.2415944 14.04372,12.4158191 L18,10.9749122 C17.848693,10.7202598 17.7423147,10.4420107 17.6854192,10.1520772 Z"></path>
    <path d="M18.3933149,7.98000219 C18.5605967,7.73463883 18.7655334,7.51927412 19,7.34244649 L13.3904339,3 C13.3077501,3.30070438 13.175676,3.58442285 13,3.83872087 L18.3773518,8 C18.3820261,7.99287749 18.3883761,7.9871247 18.3933149,7.98000219 Z"></path>
    <path d="M5,18.6973479 L2.84741917,12 C2.57709593,12.1079039 2.29181526,12.1646763 2.00391378,12.1678622 L2,12.1678622 L4.19622802,19 C4.44641896,18.8501395 4.71823264,18.7477908 5,18.6973479 Z" opacity="0.75"></path>
  </g>
</symbol>
<symbol id="icon-printer" viewBox="0 0 24 24">
  <title>Printer</title>
  <g transform="translate(1, 8)" fill="#FFFFFF" fill-rule="nonzero">
    <path d="M19.2857143,1.25776398 L19.2857143,8.80434783 C19.2857143,9.49899169 18.7225942,10.0621118 18.0279503,10.0621118 L15.931677,10.0621118 L15.931677,7.54658385 L17.189441,7.54658385 C17.4209889,7.54658385 17.6086957,7.35887715 17.6086957,7.12732919 C17.6086957,6.89578124 17.4209889,6.70807453 17.189441,6.70807453 L2.09627329,6.70807453 C1.86472534,6.70807453 1.67701863,6.89578124 1.67701863,7.12732919 C1.67701863,7.35887715 1.86472534,7.54658385 2.09627329,7.54658385 L3.35403727,7.54658385 L3.35403727,10.0621118 L1.25776398,10.0621118 C0.563120113,10.0621118 1.8618647e-16,9.49899169 0,8.80434783 L0,1.25776398 C-1.8618647e-16,0.563120113 0.563120113,0 1.25776398,0 L18.0279503,0 C18.7225942,0 19.2857143,0.563120113 19.2857143,1.25776398 Z M5.0310559,2.93478261 C5.0310559,2.70323465 4.8433492,2.51552795 4.61180124,2.51552795 L2.93478261,2.51552795 C2.70323465,2.51552795 2.51552795,2.70323465 2.51552795,2.93478261 C2.51552795,3.16633056 2.70323465,3.35403727 2.93478261,3.35403727 L4.61180124,3.35403727 C4.8433492,3.35403727 5.0310559,3.16633056 5.0310559,2.93478261 Z" fill-rule="nonzero"></path>
    <path d="M4.19254658,11.3198758 C4.19254658,11.5514237 4.38025329,11.7391304 4.61180124,11.7391304 L14.673913,11.7391304 C14.905461,11.7391304 15.0931677,11.5514237 15.0931677,11.3198758 L15.0931677,7.54658385 L4.19254658,7.54658385 L4.19254658,11.3198758 Z" opacity="0.5"></path>
  </g>
</symbol>
<symbol id="icon-scan" viewBox="0 0 24 24">
  <title>Scan</title>
  <g transform="translate(-10, -10)" fill="#FFFFFF" fill-rule="nonzero">
    <path d="M28.96,29.72 C28.9589949,30.5590562 28.2790562,31.2389949 27.44,31.24 L15.28,31.24 C14.4409438,31.2389949 13.7610051,30.5590562 13.76,29.72 L13.76,17.56 C13.7608797,16.7208918 14.4408918,16.0408797 15.28,16.04 L23.26,16.04 C23.4698682,16.04 23.64,15.8698682 23.64,15.66 C23.64,15.4501318 23.4698682,15.28 23.26,15.28 L15.28,15.28 C14.0207908,15.28 13,16.3007908 13,17.56 L13,29.72 C13,30.9792092 14.0207908,32 15.28,32 L27.44,32 C28.6992092,32 29.72,30.9792092 29.72,29.72 L29.72,21.855064 C29.4728131,21.9424219 29.2185316,22.00823 28.96,22.051752 L28.96,29.72 Z" fill-rule="nonzero" opacity="0.5"></path>
    <circle fill-rule="nonzero" cx="28.2" cy="16.8" r="3.8"></circle>
  </g>
</symbol>
<symbol id="icon-search-docs" viewBox="0 0 24 24">
  <title>Search Documents</title>
  <g transform="translate(3, 2.5)" fill="#FFFFFF" fill-rule="nonzero" stroke="#FFFFFF" stroke-width="0.5">
    <path d="M19.8842422,19.3192246 L16.4937232,15.9289809 C16.4840733,15.9218118 16.4740427,15.9151698 16.4636755,15.9090839 C18.1304398,13.9453521 17.9509339,11.0164497 16.0568371,9.27091983 C14.1627403,7.52538997 11.2287099,7.58497199 9.40705088,9.40595855 C7.58539189,11.2269451 7.52495998,14.16072 9.27008595,16.0551657 C11.0152119,17.9496114 13.9443003,18.1299464 15.9086715,16.463883 C15.9166629,16.4732322 15.9197796,16.4849786 15.92865,16.4939283 L19.3190891,19.884172 C19.475306,20.0390585 19.727347,20.0385426 19.8829284,19.8830178 C20.0385098,19.7274931 20.0390971,19.4754727 19.8842422,19.3192246 Z M12.8089602,16.804929 C10.602191,16.804929 8.81325111,15.0161344 8.81325111,12.8095443 C8.81325111,10.6029543 10.602191,8.81415961 12.8089602,8.81415961 C15.0157294,8.81415961 16.8046693,10.6029543 16.8046693,12.8095443 C16.8021151,15.0150756 15.0146705,16.8023751 12.8089602,16.804929 Z"></path>
    <path d="M6.8,15.2 L1.2,15.2 C0.9790861,15.2 0.8,15.0209139 0.8,14.8 L0.8,1.2 C0.8,0.9790861 0.9790861,0.8 1.2,0.8 L14.8,0.8 C15.0209139,0.8 15.2,0.9790861 15.2,1.2 L15.2,6.8 C15.2,7.0209139 15.3790861,7.2 15.6,7.2 C15.8209139,7.2 16,7.0209139 16,6.8 L16,1.2 C16,0.5372583 15.4627417,4.05812251e-17 14.8,0 L1.2,0 C0.5372583,-4.05812251e-17 8.11624501e-17,0.5372583 0,1.2 L0,14.8 C8.11624501e-17,15.4627417 0.5372583,16 1.2,16 L6.8,16 C7.0209139,16 7.2,15.8209139 7.2,15.6 C7.2,15.3790861 7.0209139,15.2 6.8,15.2 Z"></path>
  </g>
</symbol>
<symbol id="icon-shield" viewBox="0 0 24 24">
  <title>Shield</title>
  <g transform="translate(2, 2)" fill="#FFFFFF" fill-rule="nonzero">
    <path d="M0,0 L0,9.56521739 C0,13.5869565 4.72826087,20 9.13043478,20 C13.5326087,20 18.2608696,13.5869565 18.2608696,9.56521739 L18.2608696,0 L0,0 Z M9.13043478,17.3913043 C6.04408696,17.3913043 2.60869565,12.9857391 2.60869565,10 L2.60869565,3.04347826 C2.60869565,2.80335446 2.80335446,2.60869565 3.04347826,2.60869565 L7.39130435,2.60869565 C7.63142815,2.60869565 7.82608696,2.80335446 7.82608696,3.04347826 C7.82608696,3.28360207 7.63142815,3.47826087 7.39130435,3.47826087 L3.47826087,3.47826087 L3.47826087,10 C3.47826087,12.5161739 6.5646087,16.5217391 9.13043478,16.5217391 C9.37055859,16.5217391 9.56521739,16.7163979 9.56521739,16.9565217 C9.56521739,17.1966455 9.37055859,17.3913043 9.13043478,17.3913043 Z"></path>
  </g>
</symbol>
<symbol id="icon-stack" viewBox="0 0 24 24">
  <title>Stack of Cards</title>
  <g transform="translate(1, 5)" fill="#FFFFFF" fill-rule="nonzero">
    <path d="M21.2619048,-4.8638342e-16 L1.35714286,-4.8638342e-16 C0.607613554,-8.8817842e-16 9.17908662e-17,0.607613554 0,1.35714286 L0,9.5 C9.17908662e-17,10.2495293 0.607613554,10.8571429 1.35714286,10.8571429 L21.2619048,10.8571429 C22.0114341,10.8571429 22.6190476,10.2495293 22.6190476,9.5 L22.6190476,1.35714286 C22.6190476,0.607613554 22.0114341,7.19001578e-16 21.2619048,-4.8638342e-16 Z"></path>
    <path d="M20.3571429,12.6666667 L2.26190476,12.6666667 C2.01206166,12.6666667 1.80952381,12.8692045 1.80952381,13.1190476 C1.80952381,13.3688907 2.01206166,13.5714286 2.26190476,13.5714286 L20.3571429,13.5714286 C20.606986,13.5714286 20.8095238,13.3688907 20.8095238,13.1190476 C20.8095238,12.8692045 20.606986,12.6666667 20.3571429,12.6666667 Z"></path>
    <path d="M18.547619,15.3809524 L4.07142857,15.3809524 C3.82158547,15.3809524 3.61904762,15.5834902 3.61904762,15.8333333 C3.61904762,16.0831764 3.82158547,16.2857143 4.07142857,16.2857143 L18.547619,16.2857143 C18.7974621,16.2857143 19,16.0831764 19,15.8333333 C19,15.5834902 18.7974621,15.3809524 18.547619,15.3809524 Z" opacity="0.75"></path>
    <path d="M16.7380952,18.0952381 L5.88095238,18.0952381 C5.63110928,18.0952381 5.42857143,18.2977759 5.42857143,18.547619 C5.42857143,18.7974621 5.63110928,19 5.88095238,19 L16.7380952,19 C16.9879383,19 17.1904762,18.7974621 17.1904762,18.547619 C17.1904762,18.2977759 16.9879383,18.0952381 16.7380952,18.0952381 Z" opacity="0.5"></path>
  </g>
</symbol>
<symbol id="icon-stack-v" viewBox="0 0 24 24">
  <title>Stack of Cards (Vertical)</title>
  <g transform="translate(5, 2)" fill="#FFFFFF" fill-rule="nonzero">
    <path d="M12.6,0 L3.24,0 C2.64353247,-3.65231026e-17 2.16,0.48353247 2.16,1.08 L2.16,1.44 L10.8,1.44 C11.59529,1.44 12.24,2.08470996 12.24,2.88 L12.24,15.84 L12.6,15.84 C13.1964675,15.84 13.68,15.3564675 13.68,14.76 L13.68,1.08 C13.68,0.48353247 13.1964675,3.65231026e-17 12.6,0 Z" fill-opacity="0.5"></path>
    <rect x="0" y="2.16" width="11.52" height="15.84" rx="1.5"></rect>
  </g>
</symbol>
<symbol id="icon-triangle-left" viewBox="0 0 45 45">
<title>Triangle Left</title>
<polygon transform="translate(23.000000, 23.000000) rotate(-90.000000) translate(-23.000000, -23.000000) " points="23 19 29 27 17 27"></polygon>
</symbol>
<symbol id="icon-triangle-right" viewBox="0 0 45 45">
<title>Triangle Right</title>
<polygon transform="translate(23.000000, 23.000000) rotate(90.000000) translate(-23.000000, -23.000000) " points="23 19 29 27 17 27"></polygon>
</symbol>
</defs>
</svg>